<?xml version="1.0" encoding="UTF-8"?>
<svg version="1.1" xmlns="http://www.w3.org/2000/svg" width="576" height="512">
<path d="M0 0 C8.82134106 7.40362553 13.85134455 17.83299717 15.125 29.1875 C15.67600402 40.91011045 12.04471142 51.12551696 4.3125 59.953125 C-0.0625 64.4375 -0.0625 64.4375 -2.8125 65.8125 C-1.09225897 71.7633104 1.68944094 77.12646317 4.4440918 82.64794922 C4.97933975 83.72837494 5.51458771 84.80880066 6.0660553 85.92196655 C7.53005576 88.87410524 8.99769881 91.82436618 10.46779609 94.77346945 C11.38820566 96.62017082 12.30768081 98.46733455 13.22687721 100.31464005 C16.10913616 106.10647379 18.99457695 111.89670538 21.88467187 117.68463314 C25.20960874 124.3434606 28.52403106 131.00738077 31.82934064 137.67597187 C34.39248366 142.84562662 36.9649374 148.01057994 39.54437572 153.17212307 C41.08124314 156.2479443 42.61424033 159.32554557 44.13754845 162.40810776 C45.84168122 165.85061619 47.56091733 169.28517539 49.28393555 172.71826172 C49.77926788 173.72735596 50.27460022 174.7364502 50.78494263 175.77612305 C56.33579775 186.74846755 62.13716794 192.93738141 73.6875 197.0625 C82.25197098 198.89774378 90.10789583 197.85547042 97.671875 193.32421875 C105.07075643 188.08894962 111.95358357 182.11550686 118.921875 176.328125 C122.65103972 173.23996263 126.43044886 170.22528138 130.25 167.25 C135.27953812 163.33090755 140.24803221 159.34453775 145.1875 155.3125 C150.1498253 151.26267699 155.13912492 147.25455974 160.1875 143.3125 C169.99319605 135.65286027 179.64336773 127.79540075 189.1875 119.8125 C188.83816406 119.06484375 188.48882812 118.3171875 188.12890625 117.546875 C187.67386719 116.56203125 187.21882813 115.5771875 186.75 114.5625 C186.29753906 113.58796875 185.84507812 112.6134375 185.37890625 111.609375 C181.63420439 102.81853391 181.7455542 90.86435594 184.75 81.8125 C189.33846361 71.22373782 197.55522455 63.00433503 208.125 58.375 C218.27498785 55.07732462 230.9949692 55.19745205 240.80078125 59.4921875 C250.91853222 65.08924123 258.91038576 73.39462891 262.52734375 84.52734375 C264.9345218 96.50625935 264.23155611 108.72371572 257.6796875 119.23046875 C251.33234083 128.04294773 242.94390984 134.53383949 232.1875 136.8125 C230.62617319 136.85495488 229.06379222 136.86603571 227.50195312 136.85180664 C226.69342896 136.84613174 225.88490479 136.84045685 225.05187988 136.83460999 C224.43663452 136.82731369 223.82138916 136.8200174 223.1875 136.8125 C223.08958979 137.39390904 222.99167957 137.97531809 222.89080238 138.57434559 C218.26526204 165.92928615 213.26988457 193.21917221 208.3274979 220.51818058 C207.8361953 223.23201354 207.34502449 225.94587035 206.85384946 228.65972641 C204.68059515 240.66728383 202.50656472 252.67470051 200.33046532 264.68174267 C199.80331025 267.59048003 199.27616112 270.49921847 198.74902344 273.40795898 C198.61806021 274.1306088 198.48709699 274.85325861 198.35216518 275.59780691 C196.21994601 287.36405892 194.09253547 299.13117518 191.96703748 310.89864298 C189.77328985 323.04350283 187.57520436 335.18757131 185.37289679 347.33088189 C184.1409374 354.12440398 182.9108564 360.91825413 181.68568039 367.71300316 C180.53682583 374.08441349 179.38210141 380.4547423 178.2234211 386.82437325 C177.80017375 389.15642848 177.37888165 391.48883957 176.9597187 393.82163239 C176.38613507 397.01210172 175.80543284 400.20119793 175.22299194 403.39006042 C175.06004839 404.30610572 174.89710484 405.22215101 174.72922361 406.16595525 C172.4207305 418.68733265 169.51990547 428.66214847 158.625 436.25 C153.35481381 439.64419331 148.33181663 441.0613184 142.07353592 441.06976891 C140.25698466 441.07944224 140.25698466 441.07944224 138.4037354 441.089311 C137.06841188 441.08636904 135.73308878 441.08323363 134.39776611 441.07992554 C132.97253134 441.08366346 131.54729861 441.08826555 130.12206912 441.09365618 C126.20996325 441.10588414 122.29794291 441.10562596 118.3858223 441.10326743 C114.16482476 441.10285921 109.94385463 441.11389895 105.72286987 441.12338257 C97.45453093 441.13999266 89.1862205 441.14549213 80.91786626 441.14660732 C74.19612251 441.14755784 67.47438817 441.15166831 60.7526474 441.15800858 C41.69196332 441.17562138 22.63130176 441.18484744 3.57060948 441.18334763 C2.02938826 441.18322776 2.02938826 441.18322776 0.45703125 441.18310547 C-0.57170535 441.18302371 -1.60044195 441.18294195 -2.66035238 441.18285771 C-19.33042584 441.1820449 -36.00040893 441.20118108 -52.67045626 441.2293822 C-69.79038881 441.25811566 -86.9102773 441.27192223 -104.03023458 441.27019465 C-113.64046244 441.26953089 -123.25059556 441.2750172 -132.8608017 441.29655075 C-141.04368091 441.31476866 -149.22642245 441.3191049 -157.40931317 441.3055319 C-161.58273927 441.29900519 -165.75590129 441.29887417 -169.92930222 441.3162384 C-173.75395493 441.33198763 -177.57813461 441.32908697 -181.40277591 441.31167014 C-183.43311871 441.30715792 -185.46347628 441.32224306 -187.49376178 441.33814943 C-198.01823439 441.2589005 -206.33608686 439.1926066 -214.06640625 431.7578125 C-219.07888244 426.17344305 -221.08778028 420.40981053 -222.64935303 413.12866211 C-222.81892446 412.35020148 -222.9884959 411.57174086 -223.16320586 410.76969051 C-225.59049936 399.41897693 -227.60643613 387.98693433 -229.67285156 376.56640625 C-230.14604551 373.96598962 -230.61951637 371.36562479 -231.09332275 368.76531982 C-232.23736753 362.48306773 -233.37770297 356.20014803 -234.5167115 349.9169811 C-235.844487 342.59330135 -237.17599434 335.27030153 -238.5076215 327.9473213 C-240.88200047 314.88923411 -243.25299697 301.83053508 -245.62207031 288.77148438 C-247.92028403 276.10304822 -250.22099368 263.43506864 -252.52441406 250.76757812 C-252.66673896 249.98487112 -252.80906385 249.20216412 -252.95570162 248.39573872 C-253.09778377 247.61436759 -253.23986592 246.83299647 -253.3862536 246.02794743 C-256.01340384 231.57999905 -258.63824226 217.13163152 -261.26199456 202.68306571 C-262.18925159 197.57711702 -263.11719688 192.47129368 -264.04535675 187.36550903 C-265.29145574 180.51046139 -266.53559226 173.65505991 -267.77840424 166.79941559 C-268.23576124 164.27808957 -268.69372141 161.75687289 -269.15231323 159.23577118 C-269.77555392 155.80892222 -270.3966434 152.38169045 -271.01715088 148.9543457 C-271.20118792 147.94523919 -271.38522496 146.93613268 -271.57483888 145.89644718 C-271.73957507 144.98394923 -271.90431126 144.07145128 -272.07403946 143.13130188 C-272.21768378 142.33984929 -272.36132809 141.5483967 -272.50932527 140.7329607 C-272.8125 138.8125 -272.8125 138.8125 -272.8125 136.8125 C-273.40675781 136.85890625 -274.00101562 136.9053125 -274.61328125 136.953125 C-284.7561515 137.3948052 -292.9705002 134.30504285 -300.7421875 127.80078125 C-309.00100761 119.86919741 -313.14524995 112.36650716 -313.38183594 100.91503906 C-313.37958008 99.82932617 -313.37732422 98.74361328 -313.375 97.625 C-313.3740332 96.50963867 -313.37306641 95.39427734 -313.37207031 94.24511719 C-313.19080791 85.765513 -312.05425196 79.68929386 -306.8125 72.8125 C-306.15765625 71.95140625 -305.5028125 71.0903125 -304.828125 70.203125 C-298.85461037 63.11825881 -289.93150154 57.72756801 -280.67382812 56.53759766 C-271.49742729 55.83700418 -262.94120884 56.10872635 -254.8125 60.8125 C-254.04808594 61.225 -253.28367188 61.6375 -252.49609375 62.0625 C-243.61282968 67.35337809 -237.61016682 75.19680694 -234.49609375 85.0234375 C-231.62955994 96.71889543 -232.84756397 106.23428372 -238.984375 116.5859375 C-240.02347846 118.74576196 -240.02347846 118.74576196 -239.3359375 120.79296875 C-237.18943194 123.63846458 -234.51653981 125.63286299 -231.6875 127.75 C-230.41300794 128.72648974 -229.13961296 129.70441263 -227.8671875 130.68359375 C-227.20170898 131.19390137 -226.53623047 131.70420898 -225.85058594 132.22998047 C-222.45662503 134.86530086 -219.13706076 137.59053103 -215.8125 140.3125 C-210.85083997 144.36311403 -205.86094135 148.37056634 -200.8125 152.3125 C-195.7640356 156.25445165 -190.77498538 160.2628742 -185.8125 164.3125 C-179.6819365 169.31316843 -173.50369892 174.24465478 -167.26171875 179.10546875 C-164.8648538 180.97517403 -162.49801723 182.87678623 -160.14453125 184.80078125 C-150.62836688 192.5332982 -141.62602577 199.00138383 -128.8125 197.8125 C-118.77575605 195.93260193 -112.42650695 191.27690679 -106.43885612 183.20793915 C-103.52869896 178.92160586 -101.27941111 174.31831094 -98.97485352 169.68652344 C-98.42617111 168.59938049 -97.87748871 167.51223755 -97.31217957 166.39215088 C-95.82304248 163.43676605 -94.34112108 160.47799876 -92.86317563 157.51701641 C-91.62575356 155.04002081 -90.38355601 152.56543325 -89.14145321 150.0907824 C-86.21330072 144.25658111 -83.29360815 138.41820138 -80.37915039 132.57714844 C-77.37376343 126.55425223 -74.35368497 120.53888772 -71.32647377 114.52693534 C-68.72240789 109.35399869 -66.12762504 104.17647988 -63.54023498 98.99518228 C-61.9969604 95.90500683 -60.45017576 92.81671965 -58.89435005 89.73284149 C-57.16416404 86.3022175 -55.45337258 82.86213563 -53.74438477 79.42089844 C-53.2265744 78.40056519 -52.70876404 77.38023193 -52.17526245 76.32897949 C-51.48354195 74.92449554 -51.48354195 74.92449554 -50.77784729 73.49163818 C-50.37175515 72.67978939 -49.96566301 71.8679406 -49.54726505 71.03149033 C-48.6979896 68.4666786 -48.81491978 67.29664928 -49.8125 64.8125 C-51.45746694 63.1736223 -51.45746694 63.1736223 -53.5 61.6875 C-59.97506416 56.28192579 -65.0303418 48.3594238 -66.04785156 39.8425293 C-66.87760395 26.81273056 -65.24685698 16.68838722 -56.5625 6.4375 C-41.40281391 -9.19906363 -18.29705815 -13.02605133 0 0 Z " fill="#FFFFFF" transform="translate(312.8125,39.1875)"/>
</svg>
