<?xml version="1.0" encoding="UTF-8"?>
<svg version="1.1" xmlns="http://www.w3.org/2000/svg" width="24" height="24">
<path d="M0 0 C0.9075 0.103125 1.815 0.20625 2.75 0.3125 C2.729375 1.446875 2.70875 2.58125 2.6875 3.75 C2.33422523 7.12825674 2.33422523 7.12825674 3.75 8.3125 C6.08297433 8.35342937 8.41705225 8.35491723 10.75 8.3125 C11.0625 11.0625 11.0625 11.0625 10.75 14.3125 C8.6489541 16.807492 7.03162462 18.0360205 3.8125 18.73046875 C-0.12222954 19.0061979 -1.90158495 18.5447767 -5.25 16.3125 C-7.4822767 12.96408495 -7.9436979 11.18472954 -7.66796875 7.25 C-6.66206749 2.5871306 -4.70925009 0.45281251 0 0 Z " fill="#FFFFFF" transform="translate(10.25,2.6875)"/>
</svg>
