<?xml version="1.0" encoding="UTF-8"?>
<svg version="1.1" xmlns="http://www.w3.org/2000/svg" width="640" height="512">
<path d="M0 0 C1.96532433 -0.0098568 1.96532433 -0.0098568 3.97035217 -0.01991272 C8.29654748 -0.04082734 12.62274258 -0.05131245 16.94897461 -0.0612793 C18.45043899 -0.06533342 19.9519032 -0.06945052 21.45336723 -0.07362938 C28.52109436 -0.09266394 35.58881126 -0.10689111 42.65655905 -0.11524135 C50.7505358 -0.12496725 58.8442357 -0.15117127 66.93811518 -0.19174224 C73.23327806 -0.22218635 79.52836295 -0.23673714 85.82359785 -0.24002236 C89.56402807 -0.24234347 93.30416219 -0.25090801 97.0445118 -0.27648354 C139.8503281 -0.55399686 139.8503281 -0.55399686 152.78881836 6.17700195 C153.50366211 8.35668945 153.50366211 8.35668945 153.72631836 11.05200195 C155.00274871 20.05792724 158.97021556 28.34720226 165.64428711 34.61450195 C168.35108142 36.58666539 171.24173315 37.97441287 174.22631836 39.48950195 C179.40832676 42.40479113 179.40832676 42.40479113 180.98022461 45.5949707 C181.35484308 48.72943667 181.18989563 50.33363925 179.78881836 53.17700195 C176.10026664 56.14737771 172.02253161 58.09271235 167.78881836 60.17700195 C160.27725346 64.81829409 156.23360942 72.78978341 153.85131836 81.05200195 C150.1585265 98.5816404 158.55624493 116.07300133 166.73120117 131.21362305 C167.78886177 133.17708255 168.8164058 135.15445147 169.84350586 137.1340332 C175.4182362 147.65619152 182.31567048 156.93092273 189.78881836 166.17700195 C190.23153076 166.73661621 190.67424316 167.29623047 191.13037109 167.87280273 C198.39674074 176.89786683 208.32889137 182.11127089 219.79663086 183.5559082 C229.03391218 183.92974074 237.55640411 181.58091108 245.16381836 176.30200195 C248.38936083 174.10916954 248.38936083 174.10916954 252.10131836 174.73950195 C254.78881836 176.17700195 254.78881836 176.17700195 257.78881836 178.17700195 C258.12338994 180.98385029 258.30167412 183.61382833 258.35131836 186.42700195 C258.47549462 191.78957694 258.95299039 196.07502221 260.78881836 201.17700195 C260.78881836 202.49700195 260.78881836 203.81700195 260.78881836 205.17700195 C253.06493058 208.96791237 245.30528091 208.59968483 236.89834595 208.56468201 C235.26926856 208.56885742 233.64019407 208.57433608 232.01112497 208.58100182 C227.54482609 208.595448 223.07871187 208.59121428 218.61240292 208.58383501 C213.79156706 208.57910359 208.97077116 208.59161298 204.14994812 208.60185242 C194.70944378 208.61904639 185.26900597 208.61987916 175.82849003 208.61463951 C168.1547508 208.61059761 160.48103123 208.61204162 152.80729294 208.61738777 C151.7149964 208.61813619 150.62269986 208.61888462 149.49730342 208.61965572 C147.278278 208.6211872 145.05925258 208.62272555 142.84022717 208.62427069 C122.03160356 208.63799795 101.22301754 208.63255649 80.41439478 208.62108547 C61.38093448 208.61115339 42.34757139 208.62409295 23.31412609 208.64801966 C3.76685991 208.67240701 -15.78036099 208.68201939 -35.32764208 208.67536694 C-46.30046136 208.67187384 -57.27320587 208.67411275 -68.24601364 208.69161797 C-77.58716606 208.70633538 -86.92819107 208.70698138 -96.26934098 208.68954705 C-101.0341422 208.68103084 -105.79871578 208.67890274 -110.56350517 208.69419861 C-114.92838921 208.70803709 -119.29285039 208.70329336 -123.65770991 208.68395937 C-125.23368011 208.68019647 -126.80968411 208.68312972 -128.38562422 208.69357102 C-141.39756867 208.77362618 -150.39568426 206.82135795 -160.00805664 197.69262695 C-170.61522227 185.58089882 -168.79426626 170.25513818 -168.21118164 155.17700195 C-165.11890777 112.46777011 -141.81441193 69.79432075 -109.62915039 41.94262695 C-78.61113302 16.08704884 -40.65984408 0.08921249 0 0 Z " fill="#FFFFFF" transform="translate(168.211181640625,303.822998046875)"/>
<path d="M0 0 C0.9168457 0.11762695 1.83369141 0.23525391 2.77832031 0.35644531 C7.70530361 1.07339748 11.76517516 2.00425864 16.0625 4.6875 C17.56856515 7.69963029 17.18410331 10.80032622 17.16015625 14.1015625 C17.15803383 15.19602188 17.15803383 15.19602188 17.15586853 16.31259155 C17.15026531 18.64593585 17.13771235 20.97918464 17.125 23.3125 C17.11998541 24.89322778 17.11542243 26.47395707 17.11132812 28.0546875 C17.10029484 31.93232854 17.08302811 35.80989807 17.0625 39.6875 C17.6908374 39.85475586 18.3191748 40.02201172 18.96655273 40.19433594 C24.80879992 41.83414913 29.89374277 43.87954891 35.125 46.9375 C35.81182861 47.3279248 36.49865723 47.71834961 37.20629883 48.12060547 C41.91430892 50.8529973 46.14453228 53.88284526 50.16796875 57.5703125 C52.03916286 58.93367543 52.03916286 58.93367543 54.4152832 58.39355469 C57.01099204 57.70123799 58.98306479 56.82836501 61.3125 55.5078125 C62.0859375 55.07339844 62.859375 54.63898438 63.65625 54.19140625 C64.4503125 53.73636719 65.244375 53.28132813 66.0625 52.8125 C66.8565625 52.36519531 67.650625 51.91789062 68.46875 51.45703125 C71.6611967 49.65329886 74.82665505 47.83406308 77.94140625 45.8984375 C80.92084971 44.19746609 82.68292293 44.13573232 86.0625 44.6875 C102.73807691 57.14341131 118.75310639 84.34400399 122.47265625 104.9609375 C122.71959107 108.36737165 122.37459018 110.28788887 120.265625 112.98828125 C115.92674003 117.0617413 110.42959647 119.66182161 105.25 122.5 C104.17556641 123.09748047 103.10113281 123.69496094 101.99414062 124.31054688 C99.35433377 125.77710624 96.7104824 127.23577061 94.0625 128.6875 C94.16860596 129.57888672 94.16860596 129.57888672 94.27685547 130.48828125 C94.98707229 136.90894092 95.21462842 143.23093643 95.1875 149.6875 C95.19136719 150.60789062 95.19523437 151.52828125 95.19921875 152.4765625 C95.19059006 158.60293147 94.78655865 164.60474761 94.0625 170.6875 C94.83964355 171.1314209 95.61678711 171.5753418 96.41748047 172.03271484 C99.30014161 173.68136748 102.18113127 175.33286737 105.06103516 176.98632812 C106.30777246 177.70134478 107.55516487 178.41522043 108.80322266 179.12792969 C110.59711413 180.15260278 112.38860907 181.18135716 114.1796875 182.2109375 C115.79786377 183.137854 115.79786377 183.137854 117.44873047 184.08349609 C120.0625 185.6875 120.0625 185.6875 122.0625 187.6875 C123.20579009 194.35165439 121.24932687 200.12144061 118.6875 206.1875 C118.15274048 207.48300781 118.15274048 207.48300781 117.60717773 208.8046875 C111.66538787 222.75708926 100.13166515 247.65291743 86.0625 254.6875 C81.15672073 255.14086644 78.53560802 254.19067246 74.40234375 251.58984375 C73.36142578 250.95369141 72.32050781 250.31753906 71.24804688 249.66210938 C69.07812026 248.30117525 66.90885168 246.93919138 64.74023438 245.57617188 C63.70060547 244.94130859 62.66097656 244.30644531 61.58984375 243.65234375 C60.64874756 243.0605835 59.70765137 242.46882324 58.73803711 241.85913086 C55.60195474 240.48582497 54.26258528 240.59793583 51.0625 241.6875 C48.65473757 243.25624799 48.65473757 243.25624799 46.25 245.25 C41.64335784 248.71904531 36.97113573 251.48886148 31.8125 254.0625 C30.82092896 254.56245483 30.82092896 254.56245483 29.80932617 255.07250977 C25.64393117 257.10383737 21.54690848 258.45599902 17.0625 259.6875 C17.08344727 260.6662207 17.10439453 261.64494141 17.12597656 262.65332031 C17.19847963 266.29102904 17.24433633 269.92867416 17.28222656 273.56689453 C17.3023188 275.14024604 17.32959799 276.71352308 17.36425781 278.28662109 C17.41288494 280.55064272 17.43549135 282.81367573 17.453125 285.078125 C17.47377014 285.77931458 17.49441528 286.48050415 17.51568604 287.20294189 C17.51723392 290.5863172 17.30286828 292.37073834 15.23193359 295.09985352 C12.37439693 297.19107127 9.90727555 297.7095109 6.4375 298.375 C5.29023437 298.60574219 4.14296875 298.83648437 2.9609375 299.07421875 C-15.46294905 301.97256563 -41.74549028 304.33300201 -58.9375 295.6875 C-60.9375 293.6875 -60.9375 293.6875 -61.16455078 290.33935547 C-61.16423375 288.91109367 -61.15291361 287.48280788 -61.1328125 286.0546875 C-61.1299826 285.30285187 -61.12715271 284.55101624 -61.12423706 283.77639771 C-61.11302874 281.37160422 -61.08792352 278.96718119 -61.0625 276.5625 C-61.05247102 274.93359912 -61.04334503 273.30469242 -61.03515625 271.67578125 C-61.01308735 267.67954444 -60.97855351 263.68358506 -60.9375 259.6875 C-62.06357666 259.48954834 -62.06357666 259.48954834 -63.21240234 259.28759766 C-66.95027788 258.46447473 -70.17670266 256.78981618 -73.5625 255.0625 C-74.26528076 254.70712158 -74.96806152 254.35174316 -75.69213867 253.9855957 C-90.80540616 246.22463541 -90.80540616 246.22463541 -94.41796875 241.92578125 C-94.91941406 241.51714844 -95.42085938 241.10851562 -95.9375 240.6875 C-99.96125747 241.11201292 -102.80629505 242.56552015 -106.24609375 244.62890625 C-107.24060547 245.21220703 -108.23511719 245.79550781 -109.25976562 246.39648438 C-111.33542519 247.63146928 -113.40835512 248.87105358 -115.47851562 250.11523438 C-116.47431641 250.69724609 -117.47011719 251.27925781 -118.49609375 251.87890625 C-119.84658813 252.68630249 -119.84658813 252.68630249 -121.22436523 253.51000977 C-124.35879313 254.87033963 -126.55342866 254.97737657 -129.9375 254.6875 C-147.99246974 245.38864785 -159.88189649 214.98449774 -165.84765625 196.93359375 C-166.77083953 193.5780713 -167.25502952 191.39654184 -165.80688477 188.1628418 C-163.62331496 185.27147256 -161.61880321 183.9747778 -158.46484375 182.20703125 C-156.86866211 181.29727539 -156.86866211 181.29727539 -155.24023438 180.36914062 C-153.57444336 179.44391602 -153.57444336 179.44391602 -151.875 178.5 C-149.67435563 177.25903513 -147.4750666 176.01566276 -145.27734375 174.76953125 C-144.30144287 174.22530518 -143.32554199 173.6810791 -142.32006836 173.12036133 C-139.86117674 171.77220474 -139.86117674 171.77220474 -137.9375 169.6875 C-138.13870554 167.83598095 -138.35417081 165.98505465 -138.63574219 164.14404297 C-139.22256315 159.36686459 -139.08042259 154.55623991 -139.0625 149.75 C-139.06830078 148.20022461 -139.06830078 148.20022461 -139.07421875 146.61914062 C-139.06654321 140.55930346 -138.72695822 134.69615426 -137.9375 128.6875 C-138.6080542 128.31463867 -139.2786084 127.94177734 -139.96948242 127.55761719 C-143.02399 125.85565032 -146.07450843 124.14665364 -149.125 122.4375 C-150.18009766 121.85097656 -151.23519531 121.26445312 -152.32226562 120.66015625 C-153.34384766 120.08652344 -154.36542969 119.51289063 -155.41796875 118.921875 C-156.35535889 118.39819336 -157.29274902 117.87451172 -158.25854492 117.33496094 C-165.4980907 112.88290089 -165.4980907 112.88290089 -166.9296875 108.98828125 C-166.94029639 104.50602438 -165.67736297 101.02019552 -164.0625 96.875 C-163.74514893 96.04331299 -163.42779785 95.21162598 -163.10083008 94.35473633 C-157.09471782 79.06605503 -145.48760273 52.46255137 -129.9375 44.6875 C-125.03172073 44.23413356 -122.41060802 45.18432754 -118.27734375 47.78515625 C-117.23642578 48.42130859 -116.19550781 49.05746094 -115.12304688 49.71289062 C-112.95312026 51.07382475 -110.78385168 52.43580862 -108.61523438 53.79882812 C-107.57560547 54.43369141 -106.53597656 55.06855469 -105.46484375 55.72265625 C-104.52374756 56.3144165 -103.58265137 56.90617676 -102.61303711 57.51586914 C-99.47695474 58.88917503 -98.13758528 58.77706417 -94.9375 57.6875 C-92.52973757 56.11875201 -92.52973757 56.11875201 -90.125 54.125 C-85.51835784 50.65595469 -80.84613573 47.88613852 -75.6875 45.3125 C-75.02645264 44.97919678 -74.36540527 44.64589355 -73.68432617 44.30249023 C-69.51893117 42.27116263 -65.42190848 40.91900098 -60.9375 39.6875 C-60.95321045 38.67324951 -60.9689209 37.65899902 -60.98510742 36.61401367 C-61.03940319 32.85139913 -61.07384851 29.08881922 -61.10229492 25.32592773 C-61.11738243 23.69728777 -61.13785506 22.06868844 -61.16381836 20.44018555 C-61.20020449 18.09934465 -61.2172262 15.75904081 -61.23046875 13.41796875 C-61.24595261 12.68974411 -61.26143646 11.96151947 -61.27738953 11.21122742 C-61.27906253 6.18705261 -61.27906253 6.18705261 -59.62060547 3.76147461 C-56.88307428 2.01468034 -54.04686821 1.64976349 -50.875 1.0625 C-49.00134766 0.70285156 -49.00134766 0.70285156 -47.08984375 0.3359375 C-31.48956005 -2.25968256 -15.64510061 -2.06534247 0 0 Z M-58.125 117.40234375 C-67.14544945 128.77510868 -71.27752318 141.19260135 -69.9375 155.6875 C-68.11379639 168.30555738 -61.98209477 179.72050517 -51.9375 187.6875 C-39.93812509 196.12961341 -27.48488448 199.35645791 -12.9375 197.25390625 C-0.1632668 194.57597455 10.51115712 187.5780176 18 176.93359375 C25.6726032 164.67341323 27.97037176 151.85672679 25 137.6875 C21.37224156 124.73606334 13.59713093 114.93708976 2.3125 107.875 C-17.81525347 96.79967837 -42.37246622 100.3699166 -58.125 117.40234375 Z " fill="#FFFFFF" transform="translate(517.9375,202.3125)"/>
<path d="M0 0 C22.03852652 18.81159856 36.46579334 41.06373377 44.3515625 68.91015625 C44.69316406 70.08835937 45.03476562 71.2665625 45.38671875 72.48046875 C52.92056498 104.36791093 46.53869956 140.38566089 29.7109375 168.21484375 C11.42243893 197.30470432 -15.82417005 216.61472176 -48.6484375 225.91015625 C-49.82664063 226.25175781 -51.00484375 226.59335938 -52.21875 226.9453125 C-84.10619218 234.47915873 -120.12394214 228.09729331 -147.953125 211.26953125 C-177.04298557 192.98103268 -196.35300301 165.7344237 -205.6484375 132.91015625 C-205.99003906 131.73195312 -206.33164063 130.55375 -206.68359375 129.33984375 C-214.21743998 97.45240157 -207.83557456 61.43465161 -191.0078125 33.60546875 C-172.71931393 4.51560818 -145.47270495 -14.79440926 -112.6484375 -24.08984375 C-111.47023438 -24.43144531 -110.29203125 -24.77304687 -109.078125 -25.125 C-71.91216204 -33.90596927 -29.43835184 -24.14652242 0 0 Z " fill="#FFFFFF" transform="translate(304.6484375,27.08984375)"/>
</svg>
